<svg width="32" height="32" viewBox="0 0 32 32" fill="none" xmlns="http://www.w3.org/2000/svg">
  <!-- Space Invader/Alien emoji style favicon -->
  <rect width="32" height="32" fill="#000000"/>
  
  <!-- Main body -->
  <rect x="8" y="6" width="16" height="2" fill="#00ff00"/>
  <rect x="6" y="8" width="20" height="2" fill="#00ff00"/>
  <rect x="4" y="10" width="24" height="2" fill="#00ff00"/>
  <rect x="4" y="12" width="6" height="2" fill="#00ff00"/>
  <rect x="10" y="12" width="4" height="2" fill="#000000"/>
  <rect x="14" y="12" width="4" height="2" fill="#00ff00"/>
  <rect x="18" y="12" width="4" height="2" fill="#000000"/>
  <rect x="22" y="12" width="6" height="2" fill="#00ff00"/>
  
  <!-- Eyes -->
  <rect x="10" y="12" width="2" height="2" fill="#ff0000"/>
  <rect x="20" y="12" width="2" height="2" fill="#ff0000"/>
  
  <!-- Body continuation -->
  <rect x="4" y="14" width="24" height="2" fill="#00ff00"/>
  <rect x="6" y="16" width="20" height="2" fill="#00ff00"/>
  <rect x="8" y="18" width="16" height="2" fill="#00ff00"/>
  <rect x="10" y="20" width="12" height="2" fill="#00ff00"/>
  
  <!-- Arms/tentacles -->
  <rect x="2" y="22" width="4" height="2" fill="#00ff00"/>
  <rect x="8" y="22" width="4" height="2" fill="#00ff00"/>
  <rect x="20" y="22" width="4" height="2" fill="#00ff00"/>
  <rect x="26" y="22" width="4" height="2" fill="#00ff00"/>
  
  <rect x="4" y="24" width="2" height="2" fill="#00ff00"/>
  <rect x="10" y="24" width="2" height="2" fill="#00ff00"/>
  <rect x="20" y="24" width="2" height="2" fill="#00ff00"/>
  <rect x="26" y="24" width="2" height="2" fill="#00ff00"/>
  
  <!-- Legs -->
  <rect x="12" y="22" width="2" height="4" fill="#00ff00"/>
  <rect x="18" y="22" width="2" height="4" fill="#00ff00"/>
  
  <!-- Feet -->
  <rect x="10" y="26" width="4" height="2" fill="#00ff00"/>
  <rect x="18" y="26" width="4" height="2" fill="#00ff00"/>
  
  <!-- Glow effect -->
  <defs>
    <filter id="glow">
      <feGaussianBlur stdDeviation="1" result="coloredBlur"/>
      <feMerge> 
        <feMergeNode in="coloredBlur"/>
        <feMergeNode in="SourceGraphic"/>
      </feMerge>
    </filter>
  </defs>
  
  <g filter="url(#glow)">
    <!-- Duplicate the alien with glow -->
    <rect x="8" y="6" width="16" height="2" fill="#00ff00" opacity="0.8"/>
    <rect x="6" y="8" width="20" height="2" fill="#00ff00" opacity="0.8"/>
    <rect x="4" y="10" width="24" height="2" fill="#00ff00" opacity="0.8"/>
  </g>
</svg>